<svg width="116" height="89" viewBox="0 0 116 89" fill="none" xmlns="http://www.w3.org/2000/svg">
<path d="M84.7518 22.5414C85.9745 21.9375 88.4199 23.7492 87.8086 26.4668C71.6077 42.1687 51.433 58.7765 49.2933 62.4C48.0706 69.0431 91.171 88.6704 91.171 88.6704C91.171 88.6704 97.2633 89.843 100.036 87.7646C102.206 86.1373 103.398 81.7254 103.398 81.7254L115.931 6.53753C115.931 6.53753 116.495 2.73969 114.402 1.10224C111.022 -1.54315 101.87 1.40422 101.87 1.40422L6.49853 38.2433C6.49853 38.2433 -0.837698 42.1687 0.0793297 45.1883C4.35881 51.8314 24.8392 55.7569 30.647 53.6432C38.2889 52.4354 82.6121 21.0316 84.7518 22.5414Z" fill="#FBFBFB"/>
</svg>
